<?xml version="1.0" encoding="UTF-8" standalone="no"?>
<svg width="230px" height="257px" viewBox="0 0 230 257" version="1.1" xmlns="http://www.w3.org/2000/svg" xmlns:xlink="http://www.w3.org/1999/xlink">
    <!-- Generator: Sketch 42 (36781) - http://www.bohemiancoding.com/sketch -->
    <title>Artboard</title>
    <desc>Created with Sketch.</desc>
    <defs></defs>
    <g id="Page-1" stroke="none" stroke-width="1" fill="none" fill-rule="evenodd">
        <g id="Artboard">
            <g id="Group" transform="translate(10.000000, 10.000000)">
                <path d="M22.4640678,214.980678 C20.3961017,193.517966 15.8840678,94.2318644 15.8840678,94.2318644 L61.9998305,73.8405085 L61.9998305,94.2318644 L162.952881,38.6411864 L162.952881,158.318644 C162.952881,158.318644 41.0733898,231.985932 32.6377966,227.768136 C24.2022034,223.550339 22.4640678,214.980678 22.4640678,214.980678" id="Fill-97" fill="#70C8E6"></path>
                <path d="M32.6377966,227.768136 L47.139661,156.167627 C47.139661,156.167627 49.6905085,128.156949 55.329661,125.285763 C68.0115254,118.82678 151.646102,78.0879661 175.771186,66.3433898 C179.317458,64.6171186 183.558983,66.5332203 184.593559,70.339322 C186.184576,76.1932203 183.071356,83.8433898 181.078136,89.4208475 C177.665932,98.9764407 162.952881,158.318644 162.952881,158.318644 C162.952881,158.318644 133.918305,175.964576 104.530169,192.593729 C76.7472881,208.316441 57.4735593,218.073729 50.2433898,221.780169 C36.5838983,228.782542 32.6377966,227.768136 32.6377966,227.768136" id="Fill-98" fill="#F8C538"></path>
                <path d="M162.952881,72.5852542 L162.952881,67.8038983 C170.231695,64.6598305 175.335763,62.7247458 176.882881,62.7247458 L176.899492,62.7247458 C179.891695,62.7508475 180.505085,65.0905085 180.629661,66.0681356 C179.960508,65.829661 179.248644,65.7038983 178.524915,65.7038983 C177.604237,65.7038983 176.665763,65.9079661 175.771186,66.3433898 C172.490678,67.940339 168.10678,70.0747458 162.952881,72.5852542" id="Fill-99" fill="#70C8E6"></path>
                <path d="M32.6377966,227.768136 L32.6377966,227.768136 C32.6377966,227.768136 30.9435593,226.415593 28.9977966,224.001186 L41.6298305,156.823729 C41.6298305,156.823729 44.3764407,142.167627 47.2832203,131.433898 C50.19,120.698983 58.4013559,118.137458 58.4013559,118.137458 C58.4013559,118.137458 131.271356,81.4942373 162.952881,67.8038983 L162.952881,72.5852542 C140.626441,83.4613559 103.811186,101.409831 79.1664407,113.500847 C79.1581356,113.505593 79.1486441,113.509153 79.1391525,113.513898 C70.4176271,117.762542 61.8942373,121.996949 56.7486441,124.414915 C56.1352542,124.70322 55.5977966,125.034237 55.1232203,125.402034 C54.7530508,125.634576 54.3959322,125.975085 54.0518644,126.408136 C52.3516949,128.333729 51.700339,130.927288 50.9386441,133.695254 C48.3474576,142.904407 47.139661,156.167627 47.139661,156.167627 C46.0208475,159.745932 32.6377966,227.768136 32.6377966,227.768136" id="Fill-100" fill="#00B4E0"></path>
                <path d="M47.139661,156.167627 L47.139661,156.167627 C47.139661,156.167627 48.3474576,142.904407 50.9386441,133.695254 C50.9089831,133.800847 50.8805085,133.906441 50.8508475,134.012034 C49.7332203,138.036441 48.2572881,152.590508 47.139661,156.167627 M54.0518644,126.408136 C54.3959322,125.975085 54.7530508,125.634576 55.1232203,125.402034 C54.7245763,125.712881 54.3698305,126.048644 54.0518644,126.408136 M79.1664407,113.500847 C103.811186,101.409831 140.626441,83.4613559 162.952881,72.5852542 C168.10678,70.0747458 172.490678,67.940339 175.771186,66.3433898 C176.665763,65.9079661 177.604237,65.7038983 178.524915,65.7038983 C179.248644,65.7038983 179.960508,65.829661 180.629661,66.0681356 C180.662881,66.3255932 180.662881,66.4881356 180.662881,66.4881356 C180.662881,66.4881356 88.0528814,109.177458 79.1664407,113.500847" id="Fill-101" fill="#869F49"></path>
                <path d="M30.8759322,228.169153 C26.3555932,228.169153 21.1957627,221.081356 20.2288136,216.887288 C19.1313559,212.13322 13.6654237,100.71339 13.6654237,96.3247458 C13.6654237,92.0013559 15.7571186,91.9705085 15.8164407,91.9705085 L15.8188136,91.9705085 C15.8188136,91.9705085 53.5120339,75.6154237 57.5340678,73.6340678 C59.4038983,72.7122034 60.7825424,72.4654237 61.7222034,72.4654237 C62.8042373,72.4654237 63.3061017,72.7928814 63.3061017,72.7928814 L63.1922034,92.5518644 C63.1922034,92.5518644 156.754915,38.7455932 159.314068,38.3789831 C159.480169,38.3552542 159.681864,38.3457627 159.904915,38.3457627 C161.118644,38.3457627 162.952881,38.6411864 162.952881,38.6411864 L61.9998305,94.2318644 L61.9998305,73.8405085 L15.8840678,94.2318644 C15.8840678,94.2318644 20.3961017,193.517966 22.4640678,214.980678 C22.4640678,214.980678 24.2022034,223.550339 32.6377966,227.768136 C32.0694915,228.04339 31.4786441,228.169153 30.8759322,228.169153" id="Fill-102" fill="#70C8E6"></path>
                <path d="M32.6377966,227.768136 C24.2022034,223.550339 22.4640678,214.980678 22.4640678,214.980678 C20.3961017,193.517966 15.8840678,94.2318644 15.8840678,94.2318644 L61.9998305,73.8405085 L61.9998305,76.9489831 C61.9998305,76.9489831 34.2691525,88.7125424 27.0769492,92.179322 C21.0308475,95.0944068 17.0705085,96.6047458 17.0705085,96.6047458 C17.0705085,96.6047458 22.9671186,198.991017 23.3064407,209.788814 C23.4974576,215.901356 26.4611864,220.853559 28.9977966,224.001186 L28.7735593,225.197119 L32.6377966,227.768136 M61.9998305,95.3281356 L61.9998305,94.2318644 L162.952881,38.6411864 L162.952881,41.6452542 L61.9998305,95.3281356" id="Fill-103" fill="#00B4E0"></path>
                <path d="M32.6377966,227.768136 L28.7735593,225.197119 L28.9977966,224.001186 C30.9435593,226.415593 32.6377966,227.768136 32.6377966,227.768136" id="Fill-104" fill="#00AADC"></path>
                <path d="M178.991186,28.8186441 C177.603051,28.8186441 176.08322,27.6405085 176.424915,25.8454237 C177.961356,17.7823729 180.112373,9.91271186 182.891017,2.19016949 C183.29678,1.05949153 184.260169,0.570677966 185.212881,0.570677966 C186.666271,0.570677966 188.092373,1.7120339 187.467119,3.45135593 C184.688475,11.1750847 182.537458,19.0435593 181.001017,27.1066102 C180.774407,28.3025424 179.911864,28.8198305 178.991186,28.8186441" id="Fill-105" fill="#3F5192"></path>
                <path d="M191.770339,29.6550847 C190.224407,29.6550847 188.571695,27.9252542 189.466271,26.0388136 C191.485593,21.7759322 194.14678,17.909322 197.350169,14.4472881 C197.835424,13.9240678 198.388305,13.7057627 198.924576,13.7057627 C200.695932,13.7057627 202.296441,16.0857627 200.70661,17.8037288 C197.770169,20.9762712 195.413898,24.5284746 193.564237,28.4342373 C193.154915,29.2979661 192.473898,29.6550847 191.770339,29.6550847" id="Fill-106" fill="#3F5192"></path>
                <path d="M203.861356,39.3969492 C201.570339,39.3969492 199.293559,39.1916949 197.003729,38.8167797 C194.144407,38.3505085 195.157627,34.2050847 197.824746,34.2050847 C197.967119,34.2050847 198.114237,34.2169492 198.264915,34.2418644 C200.056441,34.5337288 201.853898,34.6666102 203.656102,34.6666102 C204.89,34.6666102 206.125085,34.6049153 207.360169,34.4886441 C207.449153,34.480339 207.534576,34.4755932 207.618814,34.4755932 C210.398644,34.4755932 210.285932,38.9591525 207.360169,39.2344068 C206.18678,39.3447458 205.021695,39.3969492 203.861356,39.3969492" id="Fill-107" fill="#3F5192"></path>
                <path d="M170.670678,85.5601695 C169.019153,86.1830508 167.381864,86.8344068 165.751695,87.5023729 C165.993729,86.3645763 166.23339,85.2255932 166.457627,84.0842373 C167.043729,81.100339 162.47,79.8237288 161.881525,82.8218644 C161.421186,85.1627119 160.915763,87.4916949 160.381864,89.8135593 C158.09322,90.8374576 155.821186,91.8969492 153.575254,93.019322 C150.842881,94.3837288 153.243051,98.4781356 155.970678,97.1172881 C156.960169,96.6225424 157.95678,96.1479661 158.954576,95.6733898 C158.638983,96.8918644 158.316271,98.1079661 157.980508,99.3216949 C157.163051,102.268814 161.740339,103.526441 162.55661,100.582881 C163.238814,98.1198305 163.872373,95.6472881 164.469153,93.1652542 C166.931017,92.0998305 169.415424,91.0854237 171.931864,90.1362712 C174.762712,89.069661 173.535932,84.4805085 170.670678,85.5601695" id="Fill-108" fill="#E3672C"></path>
                <path d="M14.9444068,231.326271 C13.9916949,229.847966 12.2737288,229.446949 10.7277966,230.219322 C10.050339,230.558644 9.3740678,230.89678 8.69779661,231.234915 C7.25271186,231.957458 6.73067797,234.115593 7.5920339,235.451525 C8.54474576,236.929831 10.2627119,237.330847 11.8086441,236.557288 C12.4849153,236.219153 13.1623729,235.881017 13.8386441,235.542881 C15.2837288,234.820339 15.8057627,232.661017 14.9444068,231.326271" id="Fill-109" fill="#70C8E6"></path>
                <path d="M46.1264407,227.707627 L45.3445763,227.707627 C44.1035593,227.707627 42.9147458,228.799153 42.9716949,230.080508 C43.0298305,231.365424 44.0145763,232.45339 45.3445763,232.45339 L46.1264407,232.45339 C47.3674576,232.45339 48.5562712,231.361864 48.499322,230.080508 C48.4411864,228.794407 47.4564407,227.707627 46.1264407,227.707627" id="Fill-110" fill="#E3672C"></path>
                <path d="M72.9186441,218.684746 C71.1342373,218.684746 71.1377966,215.91678 72.9186441,215.91678 C74.7030508,215.91678 74.6994915,218.684746 72.9186441,218.684746" id="Fill-111" fill="#3F5192"></path>
                <path d="M129.195085,198.092881 L128.890169,198.092881 C128.406102,198.092881 127.941017,198.52 127.963559,199.019492 C127.986102,199.522542 128.370508,199.947288 128.890169,199.947288 L129.195085,199.947288 C129.680339,199.947288 130.144237,199.520169 130.121695,199.019492 C130.100339,198.517627 129.714746,198.092881 129.195085,198.092881" id="Fill-112" fill="#E3672C"></path>
                <path d="M11.2676271,221.057627 C9.31711864,221.057627 9.31355932,224.088983 11.2676271,224.088983 C13.219322,224.088983 13.2228814,221.057627 11.2676271,221.057627" id="Fill-113" fill="#E3672C"></path>
                <path d="M2.76322034,218.289661 C-0.295423729,218.289661 -0.290677966,213.543898 2.76322034,213.543898 C5.82186441,213.543898 5.81711864,218.289661 2.76322034,218.289661" id="Fill-114" fill="#3F5192"></path>
                <path d="M81.1311864,125.581186 C81.0267797,125.332034 80.9010169,125.097119 80.7622034,124.869322 C79.4808475,122.371864 76.4922034,121.040678 73.7111864,122.265085 C70.7771186,123.555932 69.3142373,127.102203 69.4364407,130.170339 C69.51,132.022373 70.1150847,133.847119 71.5281356,135.098814 C73.3516949,136.713559 75.9381356,136.714746 77.9028814,135.371695 C78.7523729,134.790339 79.3871186,134.073729 79.8510169,133.281186 C81.5310169,131.155085 82.1574576,128.032373 81.1311864,125.581186" id="Fill-115" fill="#FFFFFF"></path>
                <path d="M89.1467797,144.343559 C89.0020339,141.171017 86.4974576,139.318983 84.9111864,138.457627 C83.3237288,137.595085 77.7605085,137.722034 74.5369492,139.549153 C71.4688136,141.288475 67.9557627,143.896271 65.1261017,147.791356 C60.2355932,154.520847 56.7664407,163.101186 56.7142373,163.333729 C55.7686441,167.614407 59.3932203,169.666949 62.8315254,167.857627 C72.700339,162.666949 80.9508475,159.397119 86.9364407,153.741356 C89.7589831,151.075424 89.3105085,147.936102 89.1467797,144.343559" id="Fill-116" fill="#FFFFFF"></path>
                <path d="M58.4618644,186.214237 C55.2442373,186.214237 53.0766102,181.402034 56.5647458,179.618814 C88.3091525,163.401356 116.195254,149.652881 145.870508,133.760508 C146.463729,133.442542 147.046271,133.303729 147.59678,133.303729 C150.797797,133.303729 152.894237,138.031695 149.463051,139.907458 C120.096271,155.964746 90.2098305,169.628983 60.1584746,185.765763 C59.5771186,186.077797 59.0052542,186.214237 58.4618644,186.214237" id="Fill-117" fill="#EEA32F"></path>
                <path d="M56.8186441,203.624068 C53.4764407,203.622881 51.2483051,198.791695 54.8361017,197.102203 C84.8044068,182.991864 114.561525,165.932034 144.102712,150.946102 C144.676949,150.654237 145.242881,150.526102 145.777966,150.526102 C149.044237,150.526102 151.205932,155.312203 147.695254,157.093051 C118.155254,172.078983 88.3969492,189.137627 58.4298305,203.247966 C57.8769492,203.508983 57.3347458,203.624068 56.8186441,203.624068" id="Fill-118" fill="#EEA32F"></path>
            </g>
        </g>
    </g>
</svg>